<svg width="512" height="512" viewBox="0 0 512 512" fill="none" xmlns="http://www.w3.org/2000/svg">
  <path
    d="M256 341.334C303.077 341.334 341.241 303.129 341.241 256.001C341.241 208.873 303.077 170.667 256 170.667C208.923 170.667 170.759 208.873 170.759 256.001C170.759 303.129 208.923 341.334 256 341.334Z"
    fill="#34D399" />
  <path fill-rule="evenodd" clip-rule="evenodd"
    d="M256.44 0.00595238C256.618 0.00915838 256.797 0.0107314 256.975 0.0178571C257.282 0.0299527 257.587 0.0540201 257.891 0.077381C258.053 0.0900145 258.216 0.0971974 258.378 0.113095C259.292 0.201732 260.191 0.342882 261.072 0.529762C261.191 0.555178 261.31 0.585863 261.429 0.613095C261.796 0.696927 262.161 0.786615 262.523 0.886905C262.59 0.905718 262.657 0.927018 262.725 0.946429C262.898 0.996002 263.071 1.04197 263.242 1.09524L264.045 1.3631C264.097 1.38134 264.147 1.40401 264.199 1.42262C265.059 1.73037 265.897 2.08347 266.709 2.48214C266.818 2.53595 266.927 2.59325 267.036 2.64881C267.361 2.8147 267.682 2.98678 267.999 3.16667C268.05 3.19552 268.103 3.22076 268.153 3.25L469.079 119.06C469.155 119.104 469.229 119.152 469.305 119.196C469.638 119.393 469.967 119.597 470.292 119.81C470.388 119.872 470.483 119.936 470.577 120C471.818 120.839 472.986 121.801 474.068 122.875C474.119 122.926 474.171 122.978 474.222 123.03C474.926 123.742 475.593 124.501 476.214 125.31C476.263 125.374 476.308 125.441 476.357 125.506C476.578 125.8 476.795 126.098 477.005 126.405C477.116 126.566 477.225 126.729 477.332 126.893C477.505 127.16 477.673 127.432 477.837 127.708C477.912 127.834 477.991 127.957 478.063 128.083C478.093 128.135 478.123 128.186 478.152 128.238C478.606 129.045 479.001 129.87 479.353 130.702C479.399 130.811 479.446 130.92 479.49 131.03C479.642 131.403 479.781 131.778 479.912 132.155C479.942 132.238 479.973 132.321 480.002 132.405C480.853 134.925 481.266 137.52 481.274 140.095C481.274 140.127 481.28 140.159 481.28 140.19V371.81C481.28 371.839 481.274 371.869 481.274 371.899C481.267 374.474 480.853 377.068 480.002 379.589C479.973 379.673 479.942 379.756 479.912 379.839C479.781 380.216 479.642 380.591 479.49 380.964C479.446 381.074 479.399 381.183 479.353 381.292C479 382.126 478.607 382.953 478.152 383.762C478.124 383.812 478.092 383.861 478.063 383.911C477.991 384.037 477.912 384.16 477.837 384.286C477.673 384.562 477.505 384.834 477.332 385.101C477.225 385.265 477.116 385.428 477.005 385.589C476.795 385.896 476.578 386.194 476.357 386.488C476.308 386.553 476.263 386.62 476.214 386.685C475.593 387.494 474.926 388.252 474.222 388.964C474.171 389.016 474.119 389.068 474.068 389.119C472.986 390.194 471.818 391.154 470.577 391.994C470.483 392.058 470.388 392.122 470.292 392.185C469.967 392.397 469.638 392.601 469.305 392.798C469.228 392.843 469.156 392.896 469.079 392.94L268.153 508.75C268.111 508.774 268.065 508.791 268.023 508.815C267.149 509.313 266.243 509.76 265.305 510.149C265.24 510.176 265.174 510.2 265.109 510.226C264.712 510.387 264.309 510.533 263.902 510.673C263.817 510.702 263.732 510.734 263.646 510.762C262.239 511.228 260.778 511.571 259.27 511.774C259.167 511.788 259.064 511.797 258.961 511.81C258.597 511.854 258.23 511.895 257.861 511.923C257.716 511.934 257.572 511.944 257.427 511.952C256.955 511.98 256.479 512 256 512C255.519 512 255.041 511.98 254.567 511.952C254.422 511.944 254.278 511.934 254.133 511.923C253.764 511.895 253.397 511.854 253.033 511.81C252.93 511.797 252.827 511.788 252.724 511.774C251.216 511.571 249.755 511.228 248.348 510.762C248.262 510.734 248.177 510.702 248.092 510.673C247.685 510.533 247.282 510.387 246.885 510.226C246.82 510.2 246.754 510.176 246.689 510.149C245.751 509.76 244.845 509.314 243.971 508.815C243.931 508.792 243.887 508.773 243.846 508.75L42.9211 392.94C42.8423 392.895 42.7672 392.844 42.6892 392.798C42.3559 392.601 42.0265 392.397 41.7021 392.185C41.6065 392.122 41.5113 392.058 41.4167 391.994C40.1763 391.154 39.0079 390.194 37.9265 389.119C37.8747 389.068 37.8231 389.016 37.7719 388.964C37.0681 388.252 36.4009 387.494 35.78 386.685C35.7306 386.62 35.6859 386.553 35.6373 386.488C35.4162 386.194 35.1985 385.896 34.9892 385.589C34.8785 385.428 34.7688 385.265 34.6621 385.101C34.4888 384.834 34.3209 384.562 34.1567 384.286C34.0821 384.16 34.0031 384.037 33.9308 383.911C33.9026 383.861 33.8754 383.812 33.8475 383.762C33.3929 382.953 32.994 382.127 32.6405 381.292C32.5946 381.183 32.5481 381.074 32.5038 380.964C32.3523 380.592 32.2133 380.216 32.0816 379.839C32.0525 379.756 32.0206 379.673 31.9924 379.589C31.1737 377.164 30.7564 374.669 30.72 372.19V139.81C30.7565 137.329 31.1725 134.832 31.9924 132.405C32.0206 132.321 32.0525 132.238 32.0816 132.155C32.2134 131.778 32.3523 131.402 32.5038 131.03C32.5482 130.92 32.5945 130.811 32.6405 130.702C32.9934 129.869 33.3938 129.046 33.8475 128.238C33.8762 128.187 33.9018 128.134 33.9308 128.083C34.0032 127.957 34.0821 127.834 34.1567 127.708C34.3209 127.432 34.4888 127.16 34.6621 126.893C34.7688 126.729 34.8785 126.566 34.9892 126.405C35.1985 126.098 35.4161 125.8 35.6373 125.506C35.686 125.441 35.7306 125.374 35.78 125.31C37.3929 123.208 39.3035 121.43 41.4167 120C41.5113 119.936 41.6065 119.872 41.7021 119.81C42.0265 119.597 42.356 119.393 42.6892 119.196C42.7664 119.151 42.8432 119.104 42.9211 119.06L243.846 3.25L243.971 3.17857C244.823 2.69337 245.706 2.25637 246.617 1.875C246.68 1.84859 246.744 1.82347 246.808 1.79762C247.191 1.64121 247.58 1.50025 247.973 1.3631C248.046 1.33743 248.119 1.31065 248.193 1.28571C248.57 1.15813 248.95 1.03795 249.335 0.928571C249.416 0.905373 249.497 0.879474 249.578 0.857143C250.482 0.610403 251.407 0.409686 252.349 0.267857C252.402 0.259789 252.456 0.257714 252.51 0.25C252.915 0.191794 253.323 0.145128 253.735 0.107143C253.853 0.0960301 253.972 0.0867428 254.091 0.077381C254.405 0.05304 254.72 0.0301927 255.037 0.0178571C255.253 0.00929229 255.469 0.00876823 255.685 0.00595238C255.79 0.00462046 255.895 0 256 0C256.147 0 256.294 0.00335625 256.44 0.00595238ZM280.355 134.095C280.355 147.56 269.451 158.476 256 158.476C242.549 158.476 231.645 147.56 231.645 134.095V66.5476L104.307 139.94L164.432 173.798C176.155 180.399 180.314 195.264 173.72 207C167.126 218.736 152.277 222.899 140.553 216.298L79.4292 181.875V330.119L140.553 295.702C152.277 289.101 167.126 293.264 173.72 305C180.314 316.736 176.155 331.601 164.432 338.202L104.313 372.054L231.645 445.44V377.905C231.645 364.44 242.549 353.524 256 353.524C269.451 353.524 280.355 364.44 280.355 377.905V445.44L407.681 372.054L347.568 338.202C335.844 331.601 331.686 316.736 338.28 305C344.874 293.264 359.723 289.101 371.446 295.702L432.571 330.119V181.875L371.446 216.298C359.723 222.899 344.874 218.736 338.28 207C331.686 195.264 335.844 180.399 347.568 173.798L407.687 139.94L280.355 66.5476V134.095Z"
    fill="#E5E7EB" />
</svg>